<?xml version="1.0" standalone="no"?>
<!DOCTYPE svg PUBLIC "-//W3C//DTD SVG 20010904//EN"
 "http://www.w3.org/TR/2001/REC-SVG-20010904/DTD/svg10.dtd">
<svg version="1.0" xmlns="http://www.w3.org/2000/svg"
 width="438.000000pt" height="569.000000pt" viewBox="0 0 438.000000 569.000000"
 preserveAspectRatio="xMidYMid meet">

<g transform="translate(0.000000,569.000000) scale(0.100000,-0.100000)"
fill="#000000" stroke="none">
<path d="M2295 5495 c-34 -18 -41 -28 -45 -61 -4 -34 -8 -39 -35 -42 -16 -2
-40 -12 -53 -23 -14 -10 -33 -19 -43 -19 -10 0 -21 -4 -24 -10 -3 -5 -15 -10
-25 -10 -10 0 -21 -9 -25 -19 -3 -10 -16 -22 -29 -25 -13 -3 -31 -17 -40 -31
-9 -14 -23 -25 -32 -25 -9 0 -34 -15 -57 -33 -53 -41 -92 -61 -105 -53 -6 3
-26 -15 -44 -40 -18 -26 -43 -50 -55 -55 -21 -8 -44 -49 -63 -111 -9 -28 5
-48 43 -61 9 -4 17 -11 17 -16 0 -9 -35 -76 -64 -123 -8 -13 -7 -23 2 -38 17
-28 15 -60 -6 -95 -21 -33 -37 -98 -33 -130 7 -47 52 -70 149 -74 27 -1 35 -7
46 -33 12 -28 11 -35 -6 -65 -11 -18 -24 -33 -29 -33 -5 0 -9 -9 -9 -20 0 -12
-7 -34 -15 -49 -11 -22 -12 -36 -3 -65 10 -32 9 -39 -9 -59 -32 -35 -73 -119
-73 -150 0 -20 12 -41 40 -69 30 -29 39 -45 35 -59 -9 -29 60 -92 86 -79 26
15 62 12 88 -6 16 -11 34 -15 59 -10 41 6 62 -7 62 -39 0 -12 7 -28 15 -35 8
-7 15 -18 15 -26 0 -18 17 -27 57 -30 26 -2 48 7 93 37 55 36 59 42 65 86 4
27 9 56 12 66 6 24 49 40 73 27 16 -8 19 -5 25 21 5 20 18 38 40 50 18 11 35
29 38 41 5 16 11 19 28 15 13 -4 28 -2 33 3 6 4 25 10 41 12 22 2 31 9 33 26
3 19 9 23 30 20 16 -2 34 4 45 15 22 22 33 22 54 -3 35 -40 47 -25 57 68 3 24
19 68 36 98 29 52 30 57 25 151 -6 125 -14 182 -28 211 -17 36 2 74 41 84 42
11 49 30 23 67 -25 35 -28 52 -17 115 6 32 5 66 -2 95 -6 25 -14 119 -18 209
-6 146 -8 162 -24 162 -23 0 -36 17 -43 56 -3 17 -19 44 -35 60 -16 16 -31 34
-33 39 -7 17 -67 55 -86 55 -10 0 -29 7 -41 16 -30 21 -122 43 -174 42 -25 0
-61 -10 -83 -23z m75 -320 c0 -3 -6 -5 -12 -5 -7 0 -23 -11 -35 -23 l-21 -23
44 -43 44 -42 -35 -33 c-19 -19 -35 -38 -35 -45 0 -6 -4 -11 -10 -11 -5 0 -10
5 -10 11 0 7 -16 26 -35 45 -36 34 -42 44 -25 44 5 0 20 10 32 23 l23 22 -36
38 c-20 20 -41 37 -47 37 -19 0 -15 7 31 52 l42 43 43 -43 c23 -23 42 -45 42
-47z m-159 -197 c15 -16 33 -28 39 -28 6 0 -10 -20 -36 -45 -49 -48 -54 -51
-54 -35 0 12 -48 60 -60 60 -15 0 -12 20 3 20 6 0 25 19 42 41 18 24 31 35 34
27 2 -7 17 -25 32 -40z m-251 -303 c0 -3 -4 -5 -10 -5 -12 0 -60 -48 -60 -60
0 -16 -5 -12 -49 31 l-40 41 34 33 c19 18 35 38 35 45 0 6 20 -9 45 -34 25
-26 45 -49 45 -51z m72 -87 c-5 -7 -12 -24 -15 -38 l-4 -25 -2 26 c0 14 -6 30
-13 37 -9 9 -6 12 16 12 22 0 26 -3 18 -12z m76 -21 c4 -33 -22 -47 -45 -24
-22 21 -8 59 20 55 16 -2 23 -11 25 -31z m72 24 c0 -5 -8 -8 -17 -7 -12 1 -18
-6 -18 -19 0 -13 6 -20 18 -19 9 1 17 -3 17 -8 0 -5 -10 -8 -22 -6 -39 5 -37
68 2 68 11 0 20 -4 20 -9z m40 -6 c0 -8 5 -15 10 -15 6 0 10 7 10 15 0 8 5 15
10 15 6 0 10 -13 10 -29 0 -17 -4 -33 -10 -36 -5 -3 -10 1 -10 9 0 9 -4 16
-10 16 -5 0 -10 -7 -10 -15 0 -8 -4 -15 -10 -15 -5 0 -10 16 -10 35 0 19 5 35
10 35 6 0 10 -7 10 -15z m67 -37 c-2 -13 -4 -5 -4 17 -1 22 1 32 4 23 2 -10 2
-28 0 -40z m73 42 c0 -5 -6 -7 -14 -4 -20 8 -27 -23 -9 -38 15 -11 16 -11 10
5 -4 11 -2 17 8 17 8 0 15 -9 15 -21 0 -15 -5 -20 -21 -17 -27 4 -44 30 -36
52 7 17 47 23 47 6z m37 -42 c-2 -13 -4 -5 -4 17 -1 22 1 32 4 23 2 -10 2 -28
0 -40z m-247 -56 c0 -4 3 -18 6 -32 6 -24 6 -25 -10 -5 -12 15 -15 16 -10 3 4
-12 1 -16 -13 -14 -15 3 -25 28 -17 46 4 8 44 10 44 2z m72 -10 c-10 -3 -10
-7 0 -20 11 -13 10 -15 -4 -9 -11 4 -18 2 -19 -6 0 -9 -2 -9 -6 1 -2 6 -10 9
-16 5 -7 -4 -6 1 2 10 11 14 11 17 0 17 -12 0 -12 2 0 9 7 5 23 6 34 3 12 -3
16 -7 9 -10z m66 -11 c-1 -21 -5 -28 -17 -26 -9 2 -19 4 -23 4 -5 1 -8 12 -8
26 0 20 5 25 24 25 21 0 25 -5 24 -29z"/>
<path d="M2255 5211 c-3 -5 -1 -12 5 -16 5 -3 10 1 10 9 0 18 -6 21 -15 7z"/>
<path d="M2300 5199 c0 -5 5 -7 10 -4 6 3 10 8 10 11 0 2 -4 4 -10 4 -5 0 -10
-5 -10 -11z"/>
<path d="M2255 5160 c3 -5 8 -10 11 -10 2 0 4 5 4 10 0 6 -5 10 -11 10 -5 0
-7 -4 -4 -10z"/>
<path d="M2300 5159 c0 -5 5 -7 10 -4 6 3 10 8 10 11 0 2 -4 4 -10 4 -5 0 -10
-5 -10 -11z"/>
<path d="M2285 5060 c-3 -5 -1 -10 4 -10 6 0 11 5 11 10 0 6 -2 10 -4 10 -3 0
-8 -4 -11 -10z"/>
<path d="M2320 5060 c0 -5 5 -10 10 -10 6 0 10 5 10 10 0 6 -4 10 -10 10 -5 0
-10 -4 -10 -10z"/>
<path d="M2280 5020 c0 -5 5 -10 10 -10 6 0 10 5 10 10 0 6 -4 10 -10 10 -5 0
-10 -4 -10 -10z"/>
<path d="M2327 5023 c-4 -3 -7 -11 -7 -17 0 -6 5 -5 12 2 6 6 9 14 7 17 -3 3
-9 2 -12 -2z"/>
<path d="M2140 4960 c0 -5 5 -10 10 -10 6 0 10 5 10 10 0 6 -4 10 -10 10 -5 0
-10 -4 -10 -10z"/>
<path d="M2185 4960 c3 -5 8 -10 11 -10 2 0 4 5 4 10 0 6 -5 10 -11 10 -5 0
-7 -4 -4 -10z"/>
<path d="M2145 4920 c3 -5 8 -10 11 -10 2 0 4 5 4 10 0 6 -5 10 -11 10 -5 0
-7 -4 -4 -10z"/>
<path d="M2180 4920 c0 -5 5 -10 10 -10 6 0 10 5 10 10 0 6 -4 10 -10 10 -5 0
-10 -4 -10 -10z"/>
<path d="M1890 4706 c0 -9 5 -16 10 -16 6 0 10 4 10 9 0 6 -4 13 -10 16 -5 3
-10 -1 -10 -9z"/>
<path d="M1850 4699 c0 -5 5 -7 10 -4 6 3 10 8 10 11 0 2 -4 4 -10 4 -5 0 -10
-5 -10 -11z"/>
<path d="M1850 4660 c0 -5 5 -10 10 -10 6 0 10 5 10 10 0 6 -4 10 -10 10 -5 0
-10 -4 -10 -10z"/>
<path d="M1890 4659 c0 -5 5 -7 10 -4 6 3 10 8 10 11 0 2 -4 4 -10 4 -5 0 -10
-5 -10 -11z"/>
<path d="M2074 4576 c-4 -10 -2 -22 4 -28 8 -8 13 -7 18 6 4 10 2 22 -4 28 -8
8 -13 7 -18 -6z"/>
<path d="M1250 5270 c0 -11 -18 -38 -40 -59 -30 -29 -52 -40 -85 -45 l-45 -7
0 -42 c0 -23 4 -57 9 -74 15 -52 5 -72 -33 -66 -36 6 -47 -7 -41 -48 2 -13 5
-32 7 -43 2 -10 -4 -22 -12 -26 -59 -32 -102 -49 -113 -45 -9 4 -12 -5 -9 -34
3 -33 -1 -43 -33 -75 l-36 -36 -35 16 c-34 16 -36 16 -50 -5 -8 -11 -24 -21
-34 -21 -10 0 -21 -4 -25 -9 -3 -5 -19 -12 -36 -16 -17 -4 -33 -13 -36 -20 -2
-8 -28 -17 -58 -20 -68 -9 -91 -31 -74 -69 15 -33 1 -50 -51 -63 -21 -6 -36
-17 -40 -29 -3 -10 -14 -32 -24 -48 -12 -16 -19 -44 -19 -65 1 -19 -6 -49 -14
-66 -10 -18 -18 -67 -21 -121 l-5 -91 31 -12 c17 -7 38 -21 48 -32 13 -15 20
-16 31 -7 10 8 20 8 38 0 21 -10 28 -9 45 8 21 21 54 25 109 14 25 -5 33 -14
43 -45 l11 -39 25 28 25 29 41 -41 41 -41 -43 -42 c-46 -46 -52 -50 -52 -30 0
7 -9 20 -20 30 -19 16 -20 16 -21 -21 -3 -84 -6 -96 -23 -106 -48 -29 -49 -31
-42 -79 4 -26 13 -53 20 -60 16 -16 14 -100 -3 -121 -12 -15 -7 -56 8 -56 14
0 32 -69 23 -87 -5 -10 -6 -47 -3 -83 5 -55 9 -66 29 -75 13 -5 25 -20 29 -32
10 -42 45 -22 74 42 13 26 19 30 56 30 41 0 72 22 73 50 0 18 82 65 112 65 37
0 36 21 -2 54 l-31 25 41 41 41 41 34 -36 c46 -49 77 -46 88 10 14 63 73 211
96 239 25 30 101 11 163 -42 11 -9 27 -12 43 -8 16 4 34 0 49 -9 22 -14 28
-15 53 -2 37 19 46 14 110 -49 48 -49 58 -54 97 -54 25 0 65 9 90 20 48 20 71
19 80 -6 7 -19 36 -7 46 20 5 14 2 31 -11 53 -11 17 -18 37 -17 44 2 9 -11 12
-45 10 -34 -2 -54 2 -67 14 -15 14 -24 15 -58 4 -40 -11 -41 -11 -81 29 -27
27 -41 49 -41 67 0 17 -12 36 -34 55 -50 44 -52 80 -10 164 19 38 42 75 50 81
13 9 13 15 3 38 -10 22 -10 35 -1 61 7 18 12 42 12 53 0 11 14 34 30 51 45 47
38 79 -17 79 -49 0 -115 24 -142 52 -24 25 -24 23 -7 126 2 11 14 37 26 58 19
32 21 42 11 63 -13 29 -15 81 -3 86 4 2 18 23 31 47 23 46 23 46 -21 72 -23
13 -23 37 1 97 l20 49 -42 13 c-23 7 -54 17 -68 22 -14 5 -39 8 -54 6 -23 -2
-30 2 -35 22 -3 14 -12 25 -20 26 -32 1 -60 16 -62 32 0 9 -2 23 -2 30 -2 20
-70 111 -83 112 -7 0 -13 -9 -13 -20z m140 -911 c0 -14 47 -59 61 -59 5 0 9
-7 9 -15 0 -8 -4 -15 -10 -15 -12 0 -60 -48 -60 -60 0 -6 -4 -10 -10 -10 -5 0
-10 7 -10 15 0 8 -3 15 -7 15 -5 1 -23 13 -40 29 l-33 27 40 30 c22 16 40 35
40 42 0 15 20 16 20 1z m-480 -109 c12 -8 11 -10 -7 -10 -16 0 -23 -6 -23 -20
0 -11 7 -20 16 -20 8 0 12 5 9 10 -3 6 -1 10 4 10 17 0 13 -27 -5 -34 -34 -13
-59 35 -32 62 14 14 19 15 38 2z m58 -13 c16 15 17 15 20 -3 6 -33 22 -40 22
-10 0 18 4 26 13 23 13 -5 14 -19 3 -54 -6 -17 -3 -23 9 -23 8 0 21 -12 27
-27 9 -22 12 -24 15 -10 3 9 8 17 11 18 4 0 14 2 24 4 11 2 17 -6 20 -27 5
-29 4 -30 -29 -25 -21 4 -33 2 -33 -6 0 -8 -3 -8 -11 0 -6 6 -18 9 -25 6 -8
-3 -14 0 -14 6 0 8 -6 7 -20 -1 -11 -7 -20 -18 -20 -25 0 -7 -4 -13 -10 -13
-5 0 -10 5 -10 11 0 14 -47 59 -61 59 -5 0 -9 7 -9 15 0 8 5 15 11 15 17 0 38
32 40 60 1 17 3 20 6 8 4 -17 6 -17 21 -1z m102 -17 c0 -28 -13 -40 -24 -22
-7 12 5 52 15 52 5 0 9 -13 9 -30z m40 15 c0 -8 5 -15 10 -15 6 0 10 7 10 15
0 8 6 15 14 15 8 0 13 -8 11 -17 -2 -10 -4 -25 -4 -33 -1 -12 -3 -13 -10 -1
-7 11 -9 11 -14 0 -5 -12 -7 -12 -15 0 -8 11 -10 11 -15 0 -3 -8 -6 1 -6 19
-1 17 4 32 9 32 6 0 10 -7 10 -15z m110 -11 c6 -14 10 -27 10 -28 0 -1 -13 -3
-29 -3 -27 0 -28 2 -19 29 12 35 26 36 38 2z m-450 -464 c0 -12 48 -60 60 -60
15 0 12 -20 -2 -20 -7 0 -26 -18 -42 -40 -26 -35 -41 -43 -41 -22 0 11 -55 62
-65 62 -6 0 -10 5 -10 10 0 6 6 10 13 10 6 0 25 16 41 35 29 35 46 44 46 25z"/>
<path d="M1355 4310 c-3 -5 -1 -10 4 -10 6 0 11 5 11 10 0 6 -2 10 -4 10 -3 0
-8 -4 -11 -10z"/>
<path d="M1390 4310 c0 -5 5 -10 11 -10 5 0 7 5 4 10 -3 6 -8 10 -11 10 -2 0
-4 -4 -4 -10z"/>
<path d="M1355 4260 c3 -5 8 -10 11 -10 2 0 4 5 4 10 0 6 -5 10 -11 10 -5 0
-7 -4 -4 -10z"/>
<path d="M1390 4259 c0 -5 5 -7 10 -4 6 3 10 8 10 11 0 2 -4 4 -10 4 -5 0 -10
-5 -10 -11z"/>
<path d="M725 3710 c-3 -5 -2 -10 4 -10 5 0 13 5 16 10 3 6 2 10 -4 10 -5 0
-13 -4 -16 -10z"/>
<path d="M770 3710 c0 -5 5 -10 11 -10 5 0 7 5 4 10 -3 6 -8 10 -11 10 -2 0
-4 -4 -4 -10z"/>
<path d="M730 3670 c0 -5 5 -10 11 -10 5 0 7 5 4 10 -3 6 -8 10 -11 10 -2 0
-4 -4 -4 -10z"/>
<path d="M770 3669 c0 -5 5 -7 10 -4 6 3 10 8 10 11 0 2 -4 4 -10 4 -5 0 -10
-5 -10 -11z"/>
<path d="M3281 5064 c0 -12 6 -38 14 -57 22 -54 19 -65 -26 -87 -22 -12 -49
-37 -61 -56 -11 -18 -23 -34 -27 -34 -4 0 -14 -11 -21 -25 -17 -32 -45 -32
-65 -1 -9 13 -31 31 -49 40 -43 20 -53 33 -61 78 -5 28 -14 39 -36 48 -16 7
-29 20 -29 30 0 26 -39 70 -62 70 -20 0 -20 -3 -13 -72 5 -40 9 -122 9 -183 1
-88 5 -115 19 -135 33 -47 13 -99 -39 -100 -25 0 -39 -27 -24 -45 14 -16 20
-73 27 -217 4 -115 4 -117 -26 -172 -19 -33 -31 -69 -31 -91 0 -20 -7 -51 -14
-70 -12 -29 -20 -35 -44 -35 -17 0 -32 6 -36 15 -7 19 -36 20 -36 1 0 -21 -20
-30 -33 -17 -17 17 -24 13 -31 -13 -4 -17 -15 -25 -38 -29 -81 -14 -98 -20
-98 -33 0 -8 -15 -22 -34 -30 -28 -14 -35 -23 -39 -56 -7 -50 -12 -55 -35 -35
-35 32 -72 14 -72 -34 0 -69 -11 -89 -66 -121 -30 -16 -57 -34 -60 -39 -3 -5
-16 -9 -30 -9 -40 0 -48 -39 -23 -108 11 -31 26 -72 32 -89 12 -38 26 -41 52
-13 23 25 41 12 55 -39 5 -20 26 -56 45 -79 20 -22 45 -61 55 -86 14 -31 29
-47 50 -55 23 -7 30 -16 30 -36 0 -28 54 -84 81 -85 9 0 33 -13 54 -30 21 -16
49 -30 62 -30 24 0 75 -42 85 -70 4 -13 10 -12 41 4 20 10 45 16 58 13 13 -4
32 2 48 14 24 17 31 18 54 8 23 -10 30 -9 47 6 11 10 22 25 25 35 7 21 47 40
85 40 16 0 32 5 35 10 9 15 43 12 71 -7 16 -10 42 -16 66 -14 36 2 44 -3 85
-49 33 -35 54 -50 72 -50 47 0 87 -34 106 -89 13 -39 30 -62 75 -101 32 -27
60 -50 63 -50 3 0 -9 21 -26 48 -18 26 -57 107 -87 179 -54 130 -79 167 -66
98 9 -47 -7 -45 -39 5 -32 51 -32 69 0 62 28 -5 33 14 15 48 -6 10 -16 52 -24
92 -8 40 -28 116 -45 168 -44 141 -59 205 -71 310 -5 52 -12 112 -15 132 -4
29 0 43 20 66 14 17 25 37 25 45 0 8 9 26 21 41 16 21 20 34 14 59 -18 84 -17
178 4 244 12 37 21 77 21 91 0 36 28 137 55 199 14 31 25 71 25 90 0 95 55
271 92 298 39 26 5 64 -58 65 -11 0 -29 9 -39 20 -10 11 -34 22 -54 26 -55 10
-99 41 -104 72 -3 20 -4 21 -6 6z m-666 -1403 c-1 -44 -15 -51 -15 -8 0 21 4
37 8 37 4 0 7 -13 7 -29z m71 -3 c2 -19 -3 -29 -17 -33 -28 -9 -36 0 -31 35 3
24 9 30 25 28 13 -2 21 -12 23 -30z m64 6 c14 -37 13 -49 -5 -34 -12 10 -18
10 -30 0 -18 -15 -18 -12 -4 29 13 38 26 40 39 5z m77 -14 c2 -31 1 -33 -11
-17 -7 9 -16 17 -19 17 -3 0 -8 -8 -10 -17 -3 -10 -5 -1 -6 20 -1 34 1 38 21
35 18 -2 23 -10 25 -38z m68 9 c4 -17 4 -33 1 -36 -3 -4 -6 -1 -6 5 0 16 -27
15 -33 0 -3 -8 -6 -5 -6 5 -1 22 16 57 29 57 4 0 11 -14 15 -31z m66 18 c-7
-7 -7 -16 0 -29 6 -11 8 -22 5 -25 -3 -3 -8 2 -12 11 -6 15 -7 15 -20 -1 -12
-16 -13 -14 -14 18 0 33 3 37 26 37 17 0 22 -4 15 -11z m49 -22 c0 -19 -4 -35
-10 -35 -5 0 -10 16 -10 35 0 19 5 35 10 35 6 0 10 -16 10 -35z m-254 -74 c-4
-5 -2 -11 4 -13 14 -5 -2 -25 -24 -30 -12 -2 -20 3 -21 15 -2 9 1 17 6 17 6 0
7 5 4 10 -3 6 3 10 15 10 12 0 19 -4 16 -9z m74 -22 c0 -24 -3 -30 -16 -25 -9
3 -20 6 -26 6 -6 0 -8 7 -4 15 3 8 1 15 -5 15 -6 0 -7 5 -4 10 3 6 17 10 31
10 20 0 24 -5 24 -31z m62 6 c5 -22 2 -25 -23 -25 -24 0 -29 4 -29 25 0 20 5
25 24 25 17 0 25 -7 28 -25z m-182 -45 c0 -5 11 -21 25 -35 14 -14 30 -25 35
-25 6 0 10 -7 10 -15 0 -8 -3 -14 -7 -13 -11 3 -63 -47 -63 -61 0 -6 -4 -11
-10 -11 -5 0 -10 5 -10 11 0 14 -52 64 -62 61 -5 -1 -8 5 -8 13 0 8 4 15 10
15 12 0 60 48 60 60 0 6 5 10 10 10 6 0 10 -4 10 -10z"/>
<path d="M2790 3670 c0 -5 5 -10 10 -10 6 0 10 5 10 10 0 6 -4 10 -10 10 -5 0
-10 -4 -10 -10z"/>
<path d="M2675 3470 c-3 -5 -1 -10 4 -10 6 0 11 5 11 10 0 6 -2 10 -4 10 -3 0
-8 -4 -11 -10z"/>
<path d="M2710 3470 c0 -5 5 -10 11 -10 5 0 7 5 4 10 -3 6 -8 10 -11 10 -2 0
-4 -4 -4 -10z"/>
<path d="M2670 3431 c0 -5 5 -13 10 -16 6 -3 10 -2 10 4 0 5 -4 13 -10 16 -5
3 -10 2 -10 -4z"/>
<path d="M2710 3419 c0 -5 5 -7 10 -4 6 3 10 8 10 11 0 2 -4 4 -10 4 -5 0 -10
-5 -10 -11z"/>
<path d="M675 3930 c-3 -5 -1 -10 4 -10 6 0 11 5 11 10 0 6 -2 10 -4 10 -3 0
-8 -4 -11 -10z"/>
<path d="M715 3931 c-3 -5 -1 -12 5 -16 5 -3 10 1 10 9 0 18 -6 21 -15 7z"/>
<path d="M675 3880 c3 -5 8 -10 11 -10 2 0 4 5 4 10 0 6 -5 10 -11 10 -5 0 -7
-4 -4 -10z"/>
<path d="M715 3880 c3 -5 8 -10 11 -10 2 0 4 5 4 10 0 6 -5 10 -11 10 -5 0 -7
-4 -4 -10z"/>
<path d="M1254 3623 c-20 -43 -40 -90 -44 -105 -14 -46 10 -44 51 2 22 24 39
38 39 30 0 -7 16 -27 35 -45 l34 -33 -40 -41 c-44 -43 -49 -47 -49 -31 0 17
-52 61 -67 56 -7 -3 -19 -19 -24 -36 -6 -16 -14 -30 -17 -31 -4 0 -23 -2 -42
-4 -26 -2 -43 -13 -71 -46 -26 -30 -41 -40 -53 -36 -26 10 -73 -19 -103 -64
-30 -46 -65 -64 -92 -49 -20 10 -31 4 -31 -17 0 -8 -11 -29 -25 -47 -30 -40
-30 -42 -5 -90 12 -24 17 -49 13 -66 -4 -25 -2 -29 27 -35 20 -5 35 -16 43
-33 14 -34 25 -42 56 -42 14 0 34 -9 46 -20 17 -16 29 -19 54 -14 18 4 35 14
38 23 8 22 44 51 64 51 9 0 19 7 23 15 8 22 29 18 56 -10 13 -14 34 -25 46
-25 13 0 26 -4 29 -10 3 -5 19 -10 34 -10 16 0 41 -10 56 -22 27 -21 40 -24
138 -32 54 -4 87 -28 87 -62 0 -17 7 -25 27 -30 15 -4 36 -18 46 -31 13 -17
29 -23 55 -23 48 0 110 22 138 49 23 22 23 22 33 2 6 -11 11 -29 11 -40 0 -25
4 -26 36 -5 18 13 28 14 36 6 9 -9 16 -4 29 18 23 37 70 47 121 26 48 -20 48
-21 48 9 0 30 24 43 45 25 8 -7 24 -10 36 -7 12 3 22 0 26 -9 6 -17 59 -19 69
-3 7 12 15 81 15 131 0 27 -32 100 -56 128 -20 23 -55 135 -55 176 0 20 -8 48
-19 62 -10 15 -20 36 -22 47 -3 13 -12 20 -29 20 -16 0 -28 9 -36 25 -42 85
-57 131 -59 179 -1 37 -7 56 -18 62 -11 7 -17 4 -21 -8 -3 -10 -17 -23 -30
-29 -20 -9 -28 -8 -43 8 -18 18 -22 18 -59 4 -21 -8 -62 -17 -91 -20 l-51 -6
-63 60 c-50 48 -68 60 -84 54 -39 -13 -150 -2 -172 18 -25 21 -99 58 -118 58
-10 0 -29 -29 -51 -77z m176 -358 c14 -19 31 -35 38 -35 7 0 11 -13 11 -32 -1
-24 -3 -27 -6 -10 -7 35 -30 25 -24 -10 0 -5 -8 -8 -19 -8 -11 0 -20 -7 -20
-15 0 -8 -7 -15 -15 -15 -8 0 -15 7 -15 16 0 11 -6 13 -19 9 -11 -3 -22 -1
-26 5 -3 5 0 10 7 10 8 1 4 9 -9 19 -24 20 -29 31 -13 31 12 0 60 48 60 60 0
21 26 8 50 -25z m113 -42 c-7 -2 -14 -19 -14 -36 l-2 -32 -4 30 c-3 16 -10 33
-16 37 -7 4 2 7 18 7 17 0 24 -3 18 -6z m66 -24 c10 -28 9 -30 -11 -24 -13 5
-24 2 -29 -6 -13 -21 -12 17 1 42 15 27 26 24 39 -12z m50 14 c9 -17 10 -17
16 0 11 27 25 20 25 -12 0 -21 -5 -28 -17 -27 -10 0 -21 6 -25 11 -5 6 -8 5
-8 -2 0 -7 -4 -13 -10 -13 -5 0 -10 14 -10 30 0 33 14 39 29 13z m107 -11 c11
-28 10 -29 -17 -28 -31 1 -34 7 -19 37 15 26 24 24 36 -9z m-276 -75 c17 5 20
0 19 -28 -1 -20 -3 -26 -6 -15 -4 13 -7 15 -13 7 -11 -18 -41 15 -33 36 4 9 8
12 10 6 2 -6 13 -9 23 -6z m148 -23 c-3 -35 -48 -35 -48 0 0 13 6 26 13 29 22
8 37 -5 35 -29z m-77 14 c1 -7 1 -16 0 -20 0 -5 4 -8 9 -8 6 0 10 -4 10 -10 0
-5 -10 -10 -23 -10 -20 0 -23 4 -19 30 4 29 21 42 23 18z m-211 -67 c0 -14 45
-61 59 -61 6 0 11 -4 11 -10 0 -5 -4 -10 -10 -10 -12 0 -60 -48 -60 -60 0 -21
-26 -8 -50 25 -14 19 -31 35 -37 35 -15 0 -18 20 -3 20 12 0 60 48 60 60 0 6
7 10 15 10 8 0 15 -4 15 -9z"/>
<path d="M1405 3240 c3 -5 8 -10 11 -10 2 0 4 5 4 10 0 6 -5 10 -11 10 -5 0
-7 -4 -4 -10z"/>
<path d="M1305 3000 c-3 -5 -1 -10 4 -10 6 0 11 5 11 10 0 6 -2 10 -4 10 -3 0
-8 -4 -11 -10z"/>
<path d="M1350 3000 c0 -5 5 -10 11 -10 5 0 7 5 4 10 -3 6 -8 10 -11 10 -2 0
-4 -4 -4 -10z"/>
<path d="M1305 2960 c3 -5 8 -10 11 -10 2 0 4 5 4 10 0 6 -5 10 -11 10 -5 0
-7 -4 -4 -10z"/>
<path d="M1350 2959 c0 -5 5 -7 10 -4 6 3 10 8 10 11 0 2 -4 4 -10 4 -5 0 -10
-5 -10 -11z"/>
<path d="M1260 3490 c0 -5 5 -10 10 -10 6 0 10 5 10 10 0 6 -4 10 -10 10 -5 0
-10 -4 -10 -10z"/>
<path d="M1305 3490 c3 -5 8 -10 11 -10 2 0 4 5 4 10 0 6 -5 10 -11 10 -5 0
-7 -4 -4 -10z"/>
<path d="M1265 3450 c3 -5 8 -10 11 -10 2 0 4 5 4 10 0 6 -5 10 -11 10 -5 0
-7 -4 -4 -10z"/>
<path d="M1300 3450 c0 -5 5 -10 10 -10 6 0 10 5 10 10 0 6 -4 10 -10 10 -5 0
-10 -4 -10 -10z"/>
<path d="M1020 3430 c0 -5 5 -10 10 -10 6 0 10 5 10 10 0 6 -4 10 -10 10 -5 0
-10 -4 -10 -10z"/>
<path d="M1060 3430 c0 -5 5 -10 10 -10 6 0 10 5 10 10 0 6 -4 10 -10 10 -5 0
-10 -4 -10 -10z"/>
<path d="M1020 3390 c0 -5 5 -10 10 -10 6 0 10 5 10 10 0 6 -4 10 -10 10 -5 0
-10 -4 -10 -10z"/>
<path d="M2190 3316 c0 -11 28 -76 33 -76 6 0 -17 68 -26 76 -4 4 -7 4 -7 0z"/>
<path d="M2239 3213 c6 -12 11 -39 11 -61 0 -43 26 -129 46 -152 7 -8 24 -40
38 -70 23 -49 25 -63 20 -125 -4 -38 -10 -74 -14 -80 -12 -16 7 -105 32 -155
l24 -45 49 6 c28 3 61 2 75 -3 41 -15 120 -99 120 -127 0 -14 9 -34 19 -45 23
-25 39 -96 22 -96 -7 0 -10 -4 -7 -9 3 -5 -4 -11 -15 -14 -12 -3 -18 -10 -15
-16 12 -18 -24 -62 -45 -56 -11 4 -19 2 -19 -4 0 -6 -6 -11 -14 -11 -9 0 -17
-15 -21 -40 -4 -26 -12 -40 -22 -40 -11 0 -14 -7 -9 -26 5 -17 3 -25 -6 -23
-27 3 -57 -14 -60 -35 -2 -16 -10 -21 -33 -22 -51 -2 -55 -4 -49 -19 4 -8 1
-22 -6 -30 -10 -12 -10 -19 2 -37 13 -19 12 -24 -5 -41 -10 -10 -16 -25 -13
-34 6 -16 -5 -15 -48 3 -13 5 -17 4 -12 -4 4 -6 0 -26 -7 -44 -14 -33 -15 -59
-4 -88 45 -124 47 -155 7 -178 -39 -22 -47 -53 -28 -111 8 -26 12 -56 8 -66
-4 -11 -3 -33 3 -49 7 -20 7 -34 -1 -47 -15 -23 -5 -76 20 -108 29 -38 21 -83
-17 -91 -27 -6 -32 -13 -30 -43 1 -18 5 -39 8 -47 3 -8 7 -24 9 -35 3 -16 12
-21 50 -23 39 -3 51 1 78 25 25 23 33 39 40 88 4 33 13 72 18 86 10 26 106
119 123 119 15 0 47 36 54 62 16 52 34 68 75 68 25 0 40 5 40 13 1 7 6 5 14
-5 18 -25 41 -22 70 7 14 14 31 22 39 19 8 -3 17 2 21 11 4 10 13 14 24 11 14
-5 22 3 35 29 11 23 24 35 37 35 15 0 23 12 36 56 9 31 14 69 12 85 -3 15 1
60 8 99 7 45 9 85 3 108 -23 100 -8 163 87 367 44 96 72 137 156 233 85 96
158 146 202 138 21 -4 44 0 71 14 48 24 68 25 90 4 17 -17 29 -16 17 2 -4 5
-23 21 -42 34 -67 44 -140 123 -146 156 -8 42 -39 70 -89 79 -29 5 -50 18 -79
51 -34 38 -45 44 -79 44 -23 0 -50 8 -68 20 -27 20 -30 20 -59 5 -17 -9 -35
-13 -40 -10 -15 9 -52 -14 -84 -52 -26 -31 -33 -34 -66 -29 -25 4 -43 1 -59
-10 -13 -9 -32 -13 -45 -10 -13 3 -39 -3 -62 -15 l-39 -20 -18 23 c-39 51 -60
68 -81 68 -12 0 -37 11 -56 25 -19 14 -40 25 -48 25 -28 0 -102 70 -102 95 0
17 -9 29 -30 40 -19 10 -37 32 -51 64 -11 27 -34 62 -51 77 -25 24 -29 25 -19
7z m371 -1273 c12 -8 11 -10 -7 -10 -17 0 -23 -6 -23 -21 0 -16 5 -20 20 -16
11 3 20 1 20 -4 0 -16 -48 -10 -54 7 -6 16 9 54 22 54 4 0 14 -5 22 -10z m55
-20 c7 0 16 8 18 18 3 9 5 -1 6 -22 1 -36 0 -38 -13 -21 -13 18 -13 18 -24 -1
-10 -16 -11 -13 -11 21 1 22 3 32 6 23 2 -10 11 -18 18 -18z m120 22 c6 -4 12
-19 13 -34 1 -24 -2 -28 -23 -28 -22 0 -25 4 -25 35 0 34 12 44 35 27z m85
-47 c0 -5 -13 -10 -29 -11 -27 -1 -29 1 -20 24 16 42 21 45 35 21 7 -13 13
-28 14 -34z m-140 15 c0 -16 -4 -30 -10 -30 -5 0 -10 14 -10 30 0 17 5 30 10
30 6 0 10 -13 10 -30z m-66 -71 c-3 -6 0 -15 7 -20 10 -6 6 -9 -13 -9 -30 0
-34 20 -8 32 21 9 22 9 14 -3z m77 -18 c9 -23 -9 -38 -35 -28 -10 4 -16 43 -7
54 7 9 36 -9 42 -26z m67 -2 c2 -21 -1 -25 -23 -25 -19 0 -25 5 -25 21 0 44
43 47 48 4z"/>
<path d="M2765 1900 c-3 -5 -1 -10 4 -10 6 0 11 5 11 10 0 6 -2 10 -4 10 -3 0
-8 -4 -11 -10z"/>
<path d="M1095 2876 c-44 -24 -56 -57 -32 -84 8 -9 23 -48 32 -87 27 -108 77
-183 135 -200 14 -4 38 -18 53 -31 16 -13 35 -24 42 -24 8 0 19 -9 25 -20 6
-12 21 -20 36 -20 15 0 27 -7 30 -17 18 -58 30 -67 93 -69 103 -4 190 -66 234
-166 6 -16 14 -28 17 -28 4 0 7 33 8 72 1 65 -2 76 -23 99 -22 22 -23 27 -11
44 11 16 17 17 29 7 19 -16 46 -5 57 24 9 22 12 23 37 12 15 -7 35 -17 43 -23
8 -7 29 -17 45 -24 39 -15 105 -75 105 -95 0 -9 9 -21 20 -28 11 -7 20 -18 20
-24 0 -6 10 -9 23 -7 17 3 26 15 34 46 7 23 11 49 11 58 -2 22 28 83 48 100
12 10 20 10 35 1 17 -11 23 -9 45 13 27 27 44 25 45 -3 0 -12 3 -11 9 6 5 12
21 27 35 34 28 13 30 19 13 36 -7 7 -9 12 -5 12 4 0 -9 30 -28 66 -19 36 -35
79 -35 95 0 22 -6 32 -25 39 -14 5 -32 7 -40 4 -9 -4 -17 1 -21 10 -4 11 -13
14 -24 11 -10 -3 -21 -1 -25 5 -11 18 -25 11 -25 -14 0 -31 -16 -36 -57 -19
-66 27 -122 9 -123 -39 0 -21 -4 -22 -31 -7 -16 8 -25 7 -38 -5 -10 -9 -25
-16 -34 -16 -19 0 -41 35 -32 50 9 15 -8 12 -45 -6 -18 -9 -61 -20 -96 -23
-61 -7 -64 -6 -84 21 -11 15 -29 28 -38 28 -23 0 -42 19 -42 42 0 10 -4 18
-10 18 -5 0 -10 7 -10 15 0 11 -13 15 -47 17 -91 3 -103 5 -140 30 -21 14 -59
29 -85 33 -28 3 -60 16 -77 31 -16 13 -30 24 -32 23 -2 -1 -22 -11 -44 -23z
m514 -343 c0 -25 -1 -26 -9 -8 -12 27 -12 35 0 35 6 0 10 -12 9 -27z m56 1 c0
-10 -8 -20 -17 -22 -18 -3 -26 27 -11 42 12 11 28 0 28 -20z m150 0 c0 -10 -8
-20 -17 -22 -18 -3 -26 27 -11 42 12 11 28 0 28 -20z m-102 -4 c3 -10 -2 -16
-14 -16 -11 0 -19 7 -19 16 0 9 6 17 14 17 8 0 16 -8 19 -17z m47 6 c0 -24
-17 -28 -23 -6 -3 13 0 20 9 20 8 0 14 -6 14 -14z m-90 -72 c0 -8 -7 -14 -15
-14 -15 0 -21 21 -9 33 10 9 24 -2 24 -19z m100 6 c0 -13 -7 -20 -20 -20 -22
0 -28 25 -7 33 22 10 27 7 27 -13z m-50 -5 c0 -8 -7 -15 -15 -15 -8 0 -15 7
-15 15 0 8 7 15 15 15 8 0 15 -7 15 -15z"/>
<path d="M1640 2536 c0 -9 5 -16 10 -16 6 0 10 4 10 9 0 6 -4 13 -10 16 -5 3
-10 -1 -10 -9z"/>
<path d="M1790 2536 c0 -9 5 -16 10 -16 6 0 10 4 10 9 0 6 -4 13 -10 16 -5 3
-10 -1 -10 -9z"/>
<path d="M1295 2388 c23 -146 -16 -274 -89 -292 -13 -3 -28 -17 -34 -31 -7
-16 -31 -34 -65 -49 -57 -25 -89 -58 -80 -82 3 -8 0 -21 -7 -30 -12 -13 -7
-15 40 -12 l54 3 17 -83 c15 -72 15 -89 4 -133 -13 -49 -11 -79 5 -79 4 0 23
-16 43 -35 37 -36 67 -39 67 -6 0 11 9 5 26 -17 l26 -33 15 21 c22 32 154 115
220 140 82 31 167 36 237 16 42 -13 61 -14 71 -6 10 8 18 4 34 -16 12 -15 21
-35 21 -46 0 -23 52 -78 74 -78 8 0 22 -7 30 -16 20 -20 42 -9 25 13 -7 8 -13
36 -13 62 -1 30 -5 47 -12 44 -5 -2 -19 6 -29 17 -16 18 -17 24 -6 42 9 15 10
23 2 31 -16 16 -14 42 4 57 20 17 19 22 -9 55 -14 16 -22 35 -18 47 5 19 42
40 64 35 7 -1 13 5 15 14 3 11 -5 19 -22 23 -21 5 -26 12 -23 34 2 21 8 27 28
27 14 0 29 6 33 13 5 7 17 10 28 7 13 -4 19 -2 19 9 0 8 9 18 21 21 11 4 24
18 30 31 5 14 13 22 19 19 5 -3 10 -1 10 4 0 6 -4 11 -10 11 -5 0 -10 7 -10
16 0 17 -22 16 -62 -1 -14 -5 -18 -2 -18 14 0 12 -6 24 -14 27 -8 3 -20 20
-27 37 -17 40 -54 73 -99 88 -19 7 -39 18 -43 25 -12 21 -41 17 -67 -11 -20
-22 -23 -36 -27 -132 -4 -101 -10 -122 -36 -123 -4 0 -17 23 -29 50 -11 28
-24 50 -28 50 -4 0 -15 16 -24 35 -18 38 -58 63 -121 77 -52 12 -66 12 -86 4
-21 -9 -58 28 -66 66 -5 23 -9 27 -29 22 -19 -5 -26 -1 -35 20 -7 15 -20 26
-32 26 -17 0 -18 -5 -12 -42z m51 -437 c12 10 13 9 8 -5 -3 -9 -1 -16 5 -16 7
0 14 7 17 15 9 22 31 18 37 -5 7 -27 27 -25 27 2 0 15 3 19 10 12 7 -7 8 -19
1 -37 -9 -22 -8 -27 4 -27 8 0 15 -5 15 -11 0 -5 4 -8 9 -5 5 3 14 -1 21 -9
14 -17 30 -20 30 -4 0 5 -4 7 -10 4 -5 -3 -10 -1 -10 5 0 15 35 8 36 -8 3 -25
6 -26 15 -7 l9 20 -3 -20 c-2 -19 -42 -31 -52 -16 -2 4 -18 6 -35 5 -23 -2
-30 1 -26 12 3 8 3 14 1 14 -8 0 -55 -51 -55 -60 0 -17 -10 -11 -44 25 -19 19
-38 35 -45 35 -6 0 -11 5 -11 10 0 6 6 10 13 10 9 0 12 12 10 38 -2 20 0 31 3
24 5 -10 9 -10 20 -1z m134 -23 c0 -21 -3 -29 -10 -22 -5 5 -7 19 -4 32 9 31
14 27 14 -10z m54 16 c11 -28 6 -40 -14 -40 -11 0 -20 6 -20 12 0 19 11 44 20
44 4 0 11 -7 14 -16z m54 9 c-19 -5 -25 -43 -7 -43 5 0 8 4 4 9 -3 5 -1 12 5
16 5 3 10 -3 10 -14 0 -24 -22 -28 -40 -6 -15 18 3 46 29 44 13 -1 13 -2 -1
-6z m66 -9 c3 -9 6 -23 5 -32 0 -11 -2 -13 -6 -4 -4 10 -8 10 -19 1 -11 -9
-14 -8 -14 4 0 22 11 47 20 47 4 0 11 -7 14 -16z m47 7 c0 11 2 11 6 1 4 -10
8 -10 21 0 13 11 15 10 9 -5 -4 -10 -7 -25 -7 -33 0 -20 -20 -17 -21 4 -1 16
-2 16 -6 0 -5 -21 -23 -24 -23 -4 0 8 -3 23 -7 33 -6 16 -5 16 10 4 14 -11 17
-11 18 0z m83 -17 c4 -15 5 -29 1 -32 -3 -3 -5 0 -5 8 0 10 -3 10 -15 0 -12
-10 -15 -10 -15 3 0 22 11 47 20 47 4 0 11 -12 14 -26z m-126 -81 c2 -16 -1
-21 -15 -18 -10 2 -24 4 -30 4 -7 1 -13 9 -13 19 0 14 2 15 10 2 8 -13 10 -12
10 3 0 26 34 17 38 -10z m-71 -5 c-3 -8 -6 -5 -6 6 -1 11 2 17 5 13 3 -3 4
-12 1 -19z"/>
<path d="M1355 1900 c-3 -5 -1 -10 4 -10 6 0 11 5 11 10 0 6 -2 10 -4 10 -3 0
-8 -4 -11 -10z"/>
<path d="M1400 1900 c0 -5 5 -10 11 -10 5 0 7 5 4 10 -3 6 -8 10 -11 10 -2 0
-4 -4 -4 -10z"/>
<path d="M1360 1860 c0 -5 5 -10 11 -10 5 0 7 5 4 10 -3 6 -8 10 -11 10 -2 0
-4 -4 -4 -10z"/>
<path d="M1400 1859 c0 -5 5 -7 10 -4 6 3 10 8 10 11 0 2 -4 4 -10 4 -5 0 -10
-5 -10 -11z"/>
<path d="M2002 2001 c2 -7 7 -12 11 -12 12 1 9 15 -3 20 -7 2 -11 -2 -8 -8z"/>
<path d="M1270 1506 c0 -9 5 -16 10 -16 6 0 10 4 10 9 0 6 -4 13 -10 16 -5 3
-10 -1 -10 -9z"/>
<path d="M1160 1499 c0 -5 5 -7 10 -4 6 3 10 8 10 11 0 2 -4 4 -10 4 -5 0 -10
-5 -10 -11z"/>
<path d="M1270 1459 c0 -5 5 -7 10 -4 6 3 10 8 10 11 0 2 -4 4 -10 4 -5 0 -10
-5 -10 -11z"/>
<path d="M1240 1359 c0 -5 5 -7 10 -4 6 3 10 8 10 11 0 2 -4 4 -10 4 -5 0 -10
-5 -10 -11z"/>
</g>
</svg>
